<?xml version="1.0" encoding="UTF-8"?><svg id="a" xmlns="http://www.w3.org/2000/svg" viewBox="0 0 237.52 70.36"><defs><style>.b{fill:#fff;}.c{fill:#8c002a;}</style></defs><path class="c" d="M0,42v-1.56H3.25V3.45H.08V1.89H28.54l.21,14.76h-1.32c-1.6-10.77-5.59-13.2-9.05-13.2h-2.47V20.99h.7c1.27,0,4.15-1.91,4.52-7.87h1.36V30.78h-1.36c-.37-6.31-3.25-8.22-4.52-8.22h-.7v17.89h3.5v1.56H0Z"/><path class="c" d="M31.52,32.15v-1.08h2.32V12.04h-2.24v-1.07c4.23,0,8.41-.4,12.63-.54V31.08h2.24v1.08h-14.95ZM44.62,4.43c0,3.31-3.04,4.39-5.66,4.39s-5.66-1.07-5.66-4.39c0-3.54,2.92-4.43,5.66-4.43s5.66,.9,5.66,4.43Z"/><path class="c" d="M49.22,12.04v-1.07c4.06,0,8.15-.4,12.21-.54v4.52h.08c1.39-2.73,3.8-4.43,6.8-4.43,2.79,0,5.45,1.75,5.45,4.97s-2.03,5.24-4.94,5.24-4.73-1.93-4.73-4.93c0-.67,.08-1.43,.25-2.1-.63-1.12-1.9,1.43-2.03,1.88-.59,1.75-.46,3.36-.46,5.2v10.3h3v1.08h-15.63v-1.08h2.24V12.04h-2.24Z"/><g><path class="c" d="M76.64,24.62c1.48,3.76,5.92,7.12,9.8,7.12,1.27,0,2.92-.22,2.92-1.93,0-2.19-3.38-2.78-6.76-4.08-3.38-1.3-6.76-3.22-6.76-8.15,0-4.61,3.8-7.26,7.86-7.26,1.9,0,3.25,.4,5.87,1.34l3.3-1.34h.93l.25,7.66h-.97c-1.44-3.4-4.82-6.58-8.49-6.58-1.35,0-2.49,.45-2.49,2.1s2.54,2.33,3.63,2.73l4.52,1.75c2.92,1.12,4.77,3.85,4.77,7.26,0,2.33-.89,4.7-2.7,6.05-1.86,1.34-4.1,1.52-6.25,1.52-1.77,0-3.55-.94-5.32-1.43l-3.46,1.43h-1.14l-.3-8.2h.79Z"/><path class="c" d="M110.18,3.08v7.88h4.77v1.07h-4.77v15.81c0,.98-.08,2.28,1.18,2.28,2.16,0,3-3.67,3.21-5.42h.93c-.42,6.27-3.84,8.11-9.29,8.11-5.11,0-6.38-1.52-6.38-7.34V12.03h-2.49v-1.07c5.24,0,9.38-3.31,12.04-7.88h.8Z"/></g><path class="c" d="M155.81,13.46c2.72,1.49,5.06,5.09,5.06,9.28,0,7.7-6.58,10.09-12.74,10.09-2.34,0-4.76-.95-6.8-2.12l-4.59,2.12h-1.06l-.3-11.17h1.36c2.12,5.31,6.29,9.95,12.06,9.95,1.78,0,4.08-.77,4.08-3.02,0-2.66-2.76-3.78-4.67-4.68l-3.23-1.53c-6.16-2.93-9.3-6.84-9.3-11.75,0-6.57,4.46-10.36,10.41-10.36,2.38,0,4.67,.76,6.8,1.85l4.59-1.85h.98l.34,10.31h-1.15c-2.12-4.86-6.03-9.1-11.38-9.1-1.61,0-3.61,.9-3.61,2.93,0,2.43,2.8,3.42,4.5,4.37l8.67,4.68h-.02Z"/><path class="c" d="M176.56,3.08v7.88h4.77v1.07h-4.77v15.81c0,.98-.08,2.28,1.18,2.28,2.15,0,3-3.67,3.21-5.42h.93c-.42,6.27-3.84,8.11-9.3,8.11-5.11,0-6.38-1.52-6.38-7.34V12.03h-2.49v-1.07c5.24,0,9.38-3.31,12.04-7.88h.81Z"/><path class="c" d="M194.89,22.97v1.88c0,3.58,.63,6.4,4.56,6.4,3.13,0,5.96-2.11,7.73-4.7l.8,.58c-2.54,3.9-6.08,5.69-10.65,5.69-2.45,0-4.65-.18-6.93-1.21-3.59-1.61-6.17-4.75-6.17-10.03,0-7.17,5.58-11.24,11.96-11.24,7.31,0,12.38,4.7,12.29,12.63h-13.59Zm3.63-1.08v-6.18c0-1.57,.34-4.3-1.9-4.3-1.94,0-1.73,2.91-1.73,4.3v6.18h3.63Z"/><path class="c" d="M210.52,12.04v-1.07c3.93,0,7.86-.4,11.79-.54v4.08c1.69-2.82,3.34-4.17,6.55-4.17,5.7,0,8.66,5.69,8.66,11.15s-2.79,11.33-8.79,11.33c-2.54,0-4.35-1.16-5.92-3.27v11.38h3.13v1.08h-15.42v-1.08h2.24V12.04h-2.24Zm12.3,12.85c0,3.31,.97,5.28,2.32,5.28,1.06,0,1.56-1.07,1.56-5.28v-6.99c0-2.78,.08-4.84-1.52-4.84-1.44,0-2.37,1.79-2.37,4.84v6.99h0Z"/><rect class="c" x="23.79" y="37.36" width="182.44" height="33"/><g><path class="b" d="M32.34,62.62v-.63h1.72v-14.9h-1.67v-.63h11.31c4.73,0,6.31,2.49,6.31,4.73s-1.58,4.8-6.31,4.8h-3.01v5.99h2.05v.63h-10.4Zm8.34-7.24h.84c.97,0,1.58-.72,1.58-2.59v-3.36c0-1.07-.35-2.33-1.72-2.33h-.7v8.28Z"/><path class="b" d="M52.5,47.09h-1.63v-.63h11.38c4.51,0,6.14,1.89,6.14,3.92,0,2.56-2.42,3.4-4.42,3.54v.23c2.79,.33,4.2,2.1,4.2,4.9,0,1.24-.02,2.21,.59,2.21,.42,0,.77-.56,.99-.89l.59,.35c-.77,1.33-2.2,2.24-4.4,2.24-2.84,0-4.58-1.42-4.6-4.52-.02-3.89-.37-4.2-1.52-4.2h-.77v7.74h1.85v.63h-10.1v-.63h1.69v-14.9h.01Zm6.56,6.47h.84c1.03,0,1.56-.3,1.56-3.1v-1.45c0-.93-.53-1.91-1.41-1.91h-.99v6.46Z"/><path class="b" d="M71.11,62.62v-.63h1.67v-14.9h-1.67v-.63h10.17v.63h-1.67v14.9h1.67v.63h-10.17Z"/><path class="b" d="M82.46,62.62v-.63h.55c.95,0,1.23-1.14,1.23-2.21v-11.45c-.42-.58-.77-1.26-1.45-1.26h-.33v-.61h8.36l5.96,8.65v-6.85c0-.65-.68-1.17-1.5-1.17h-.44v-.63h4.53v.63h-.66c-1.14,0-1.12,.91-1.12,2.82v12.71h-3.7l-8.89-12.96v10.12c0,1.07,.22,2.21,1.28,2.21h.7v.63h-4.52Z"/><path class="b" d="M105.03,47.09c-2.57,.23-3.59,3.03-4.09,5.32h-.68l.11-5.95h16.11l.11,5.95h-.68c-.51-2.29-1.52-5.08-4.09-5.32v14.9h2v.63h-10.8v-.63h2.02v-14.9h-.01Z"/><path class="b" d="M137.28,52.95c1.41,.77,2.62,2.63,2.62,4.8,0,3.99-3.41,5.22-6.6,5.22-1.21,0-2.46-.49-3.52-1.1l-2.38,1.1h-.55l-.15-5.78h.7c1.1,2.75,3.26,5.15,6.25,5.15,.92,0,2.11-.4,2.11-1.56,0-1.38-1.43-1.96-2.42-2.42l-1.67-.79c-3.19-1.52-4.82-3.54-4.82-6.08,0-3.4,2.31-5.36,5.39-5.36,1.23,0,2.42,.4,3.52,.96l2.38-.96h.51l.18,5.34h-.59c-1.1-2.52-3.12-4.71-5.9-4.71-.84,0-1.87,.47-1.87,1.52,0,1.26,1.45,1.77,2.33,2.26l4.49,2.42h0Z"/><path class="b" d="M141.13,62.62v-.63h1.72v-14.9h-1.72v-.63h9.31v.63h-.99v6.9h2.6v-6.9h-.99v-.63h9.33v.63h-1.74v14.9h1.74v.63h-9.33v-.63h.99v-7.37h-2.6v7.37h.99v.63h-9.31Z"/><path class="b" d="M178.67,54.53c0,4.99-3.83,8.44-8.65,8.44-5.06,0-8.62-3.92-8.62-8.44,0-5.2,4.09-8.42,8.62-8.42s8.65,3.4,8.65,8.42Zm-10.12,6.04c0,.93,.48,1.77,1.47,1.77,1.06,0,1.5-.84,1.5-1.77v-10.84c0-1.17-.02-2.98-1.5-2.98s-1.47,1.82-1.47,2.98v10.84Z"/></g><path class="b" d="M179.96,62.62v-.63h1.72v-14.9h-1.67v-.63h11.31c4.73,0,6.31,2.49,6.31,4.73s-1.58,4.8-6.31,4.8h-3.01v5.99h2.05v.63h-10.4Zm8.34-7.24h.84c.97,0,1.58-.72,1.58-2.59v-3.36c0-1.07-.35-2.33-1.72-2.33h-.7v8.28Z"/></svg>